PathFileType	4	(X/Y/Z)	RBDS011\RBDS011runT35.trc
DataRate	CameraRate	NumFrames	NumMarkers	Units	OrigDataRate	OrigDataStartFrame	OrigNumFrames
150.000000	150.000000	4	33	mm	150.000000	3375	4500
Frame#	Time	L.ASIS			L.Heel.Bottom			L.Heel.Lateral			L.Heel.Top			L.Iliac.Crest			L.MT1			L.MT5			L.PSIS			L.Shank.Bottom.Lateral			L.Shank.Bottom.Medial			L.Shank.Top.Lateral			L.Shank.Top.Medial			L.Thigh.Bottom.Lateral			L.Thigh.Bottom.Medial			L.Thigh.Top.Lateral			L.Thigh.Top.Medial			R.ASIS			R.ASY			R.Heel.Bottom			R.Heel.Lateral			R.Heel.Top			R.Iliac.Crest			R.MT1			R.MT5			R.PSIS			R.Shank.Bottom.Lateral			R.Shank.Bottom.Medial			R.Shank.Top.Lateral			R.Shank.Top.Medial			R.Thigh.Bottom.Lateral			R.Thigh.Bottom.Medial			R.Thigh.Top.Lateral			R.Thigh.Top.Medial			
		X1	Y1	Z1	X2	Y2	Z2	X3	Y3	Z3	X4	Y4	Z4	X5	Y5	Z5	X6	Y6	Z6	X7	Y7	Z7	X8	Y8	Z8	X9	Y9	Z9	X10	Y10	Z10	X11	Y11	Z11	X12	Y12	Z12	X13	Y13	Z13	X14	Y14	Z14	X15	Y15	Z15	X16	Y16	Z16	X17	Y17	Z17	X18	Y18	Z18	X19	Y19	Z19	X20	Y20	Z20	X21	Y21	Z21	X22	Y22	Z22	X23	Y23	Z23	X24	Y24	Z24	X25	Y25	Z25	X26	Y26	Z26	X27	Y27	Z27	X28	Y28	Z28	X29	Y29	Z29	X30	Y30	Z30	X31	Y31	Z31	X32	Y32	Z32	X33	Y33	Z33	

3376	22.5	2277.734292321763	1023.269508434751	850.7704774146129	1626.104875206583	360.5658923849675	954.668665058161	1637.398054114067	336.696198486359	914.0144442055649	1674.800311611202	362.5405255156845	946.4615041628178	2241.947476930179	1115.857245138491	829.1685292031726	1703.430972970925	148.3011862619644	994.9195074983533	1665.141323734985	165.2082009141182	887.7042271943751	2126.842497848552	1087.55123951607	937.0627194290443	1754.485126655992	362.7727233906862	883.432308315744	1738.046175761368	387.9916066818175	930.2125603654329	1808.344332793502	420.9637475700664	871.3651431452257	1792.765042020745	446.361400969683	916.7147478496494	2072.160673814071	666.2260191009124	834.9030263052578	2018.131021136147	686.4302334874095	879.8181837992455	2093.703096166038	773.6137032290893	819.7152111018549	2045.139612487774	792.3700519697198	864.6695337598798	2300.986688877268	1036.021731766975	1088.76464976585	2585.602215526514	184.8709154831012	1023.788946459814	2438.278506312397	62.11387523329589	1025.880056743778	2459.802363239183	85.96537860933174	1066.723424797615	2429.903065153363	111.8870722821792	1031.239044814649	2257.202391128193	1108.261704912274	1133.797579786213	2636.685746538066	156.8620472293821	964.8294444720598	2630.767083069291	130.4343242233517	1079.336308919243	2132.314757490013	1090.106310442736	1039.708731568838	2450.850843096118	215.9203397880108	1083.188652810686	2414.828100779152	217.4138026444586	1046.502239377474	2428.753699044057	294.9424815949915	1104.744749665179	2390.657171688312	291.6529174418836	1067.347606609503	2351.063676657233	668.1947072389385	1145.577811393798	2293.657825774569	644.6645557478331	1106.245432079651	2296.454697137935	762.8923651069848	1162.614167796273	2241.756742394491	740.4971793010365	1127.70460957158	
3377	22.50666666666667	2278.171139180536	1023.539611930435	851.0654376409061	1622.804757972678	378.1104276557666	955.5969212033536	1633.074890248364	353.4306790410132	915.0996642429209	1671.560170263338	377.9438764585112	947.5213769130656	2240.174769350364	1116.246345956165	829.6917538031603	1691.267309573245	163.1047430257489	996.9178158892993	1653.609167187998	180.874715937434	889.6287636222096	2126.817623099362	1086.900650660162	937.1930952290024	1751.481525639181	373.669254774485	884.3151150059846	1736.284188604002	400.1457286419106	930.7579131008756	1808.240598644685	428.9045488398283	871.7307810920888	1793.951750698586	455.5683581692787	916.8335171888084	2078.439104962598	662.7550371047939	834.2610814669629	2023.495845480339	682.3099360814433	878.3098543926568	2098.390759539226	770.3618629116847	818.7551939198099	2048.649881301003	788.6809202802364	862.7960385592013	2300.398284212117	1035.309116886169	1089.361066076351	2589.285466360265	186.6593458661683	1021.968449517057	2445.005268644739	59.91770112966442	1025.375010528042	2466.406145134433	84.15380530599143	1066.080683486439	2435.302429164192	109.4888957070907	1031.051832890924	2256.820787847738	1107.126628237095	1134.149017483803	2640.484714008771	160.3771685812257	962.2847033579286	2636.54064743194	133.0014718208247	1076.784621480573	2131.958312176389	1089.194578777303	1039.917430038581	2454.285105086195	214.5898200720766	1082.60159326021	2417.894981048205	215.2106590600994	1046.193536791603	2430.628323419686	293.140584931021	1104.255896170907	2392.254265826916	288.9404798855683	1067.130983932921	2347.094022562063	665.7555079129183	1145.789875961504	2289.684132611944	643.3469269944328	1105.762543581635	2293.574310629616	760.9861730571165	1163.346229222163	2238.851005276198	739.5822261580604	1127.798718278744	
3378	22.51333333333334	2278.700158769509	1023.339787935618	851.3919450112287	1620.806269842006	395.627260341457	956.1996577575283	1630.176776650479	370.1721633653511	915.9314134103556	1669.508062228931	393.3975131954255	948.3858563190988	2238.375787443626	1115.699733305189	830.0058628706523	1680.451058616612	178.5394182110501	999.0358653597478	1643.749529268411	197.0050832142279	891.5066434010997	2126.787453448823	1085.452622965845	937.3092137316405	1749.692263449369	384.6090371852653	885.1750578656823	1735.721188711238	412.3919645274362	931.1499221305127	1809.224246337066	436.7184564930714	872.0296775725263	1796.229516438537	464.6856035524519	916.7599847194688	2085.084562138115	658.8017238649568	833.5264704050368	2029.366775326839	677.5603275135843	876.9240237652011	2103.294504640262	766.6388662961407	817.8030775833619	2052.56334684624	784.37334283391	861.1507929954472	2299.698160805819	1034.40746057557	1090.103240828914	2590.419227391772	186.9817677872402	1020.706769334459	2448.302651686563	57.49281744910042	1024.491361849325	2469.464606002935	81.97278962312448	1065.189971408483	2437.671185003104	106.9130544718244	1030.418069255507	2256.158984549706	1105.582906085226	1134.59728852276	2641.819723368895	161.8861344086209	960.6866904211237	2638.881884875278	133.8287221423554	1075.052389412048	2131.516062580901	1087.594628983717	1040.054339460855	2455.364951289504	212.8261033497219	1081.878358709679	2418.738350276819	212.8307115860905	1045.66541766455	2430.727592832149	291.0628128564913	1103.602904848075	2392.175079040125	286.2183004421166	1066.646717956849	2343.433399292172	663.2435962021311	1145.597392971521	2285.968615165556	641.7618729758525	1105.091669857876	2290.949832530935	758.9428826257052	1163.618125797292	2236.146447878312	738.3693950795353	1127.655561027191	
3379	22.52	2279.313970602022	1022.639241206111	851.7589140071298	1620.309554249359	413.0458068073974	956.4829506279684	1628.858466441757	386.8428431660621	916.4995981387947	1668.85291171638	408.7847516689407	949.0261062954272	2236.645919032409	1114.2412019964	830.1086162088849	1671.062629045184	194.4058635324575	1001.154691806195	1635.574500313644	213.4510411057314	893.263697926135	2126.773677396649	1083.233724138231	937.3755458592639	1749.196683535016	395.4720741040961	885.9511323201666	1736.447601113596	424.564942693559	931.36556625089	1811.328780033591	444.3243980154285	872.2407441957888	1799.629497672004	473.589411154735	916.4880863803603	2091.951915284551	654.4530098576081	832.7193538378607	2035.650472971033	672.2687337483621	875.7403735885163	2108.293838351495	762.5226325307888	816.9023509427595	2056.815615096583	779.5195776753905	859.8318253827657	2298.906482787823	1033.333574487609	1090.999467189231	2589.102691791637	185.6620325080202	1019.956935199843	2448.177675590808	54.68984484740651	1023.282103889502	2469.021381466625	79.25987223933555	1064.094748769081	2437.035402185838	104.0253253843685	1029.380227479645	2255.188626808676	1103.675245064686	1135.132328359854	2640.778998016044	161.2040992383298	959.9515498439174	2637.923139173913	132.6977272445973	1074.092000283399	2131.015171967266	1085.346456249199	1040.082754454068	2454.139609753578	210.4605199386568	1081.045004103898	2417.378803832872	210.12814116962	1044.954749146651	2429.091048470094	288.5609014420218	1102.819762530424	2390.429291256055	283.3595653335025	1065.946617811363	2340.123181239401	660.6349987020996	1145.008107058909	2282.544654837562	639.8684048821443	1104.254319538378	2288.611656328254	756.7455471736512	1163.398659534179	2233.662009281958	736.823868663503	1127.268712102231	
